<svg width="170" height="157" xmlns="http://www.w3.org/2000/svg" version="1.2">
 <defs>
  <clipPath id="clip1">
   <path id="svg_1" d="m0,70.43359l5.82031,0l0,17l-5.82031,0l0,-17zm0,0"/>
  </clipPath>
  <clipPath id="clip2">
   <path id="svg_2" d="m76.82031,-0.02344l7,0l0,157.45703l-7,0l0,-157.45703zm0,0"/>
  </clipPath>
  <clipPath id="clip3">
   <path id="svg_3" d="m163.82031,69.43359l6.42969,0l0,18l-6.42969,0l0,-18zm0,0"/>
  </clipPath>
 </defs>
 <g>
  <title>Layer 1</title>
  <g id="surface1">
   <g id="svg_4" clip-rule="nonzero" clip-path="url(#clip1)">
    <path id="svg_5" fill-rule="nonzero" fill="rgb(11.369324%,72.549438%,32.939148%)" d="m2.83984,70.8164c-1.5664,0 -2.83984,1.26953 -2.83984,2.83594l0,10.12891c0,1.5664 1.27344,2.83593 2.83984,2.83593c1.56641,0 2.83594,-1.26953 2.83594,-2.83593l0,-10.12891c0,-1.56641 -1.26953,-2.83594 -2.83594,-2.83594zm0,0"/>
   </g>
   <path id="svg_6" fill-rule="nonzero" fill="rgb(11.369324%,72.549438%,32.939148%)" d="m12.51953,70.8164c-1.56641,0 -2.83594,1.26953 -2.83594,2.83594l0,10.12891c0,1.5664 1.26953,2.83593 2.83594,2.83593c1.56641,0 2.83984,-1.26953 2.83984,-2.83593l0,-10.12891c0,-1.56641 -1.27343,-2.83594 -2.83984,-2.83594zm0,0"/>
   <path id="svg_7" fill-rule="nonzero" fill="rgb(11.369324%,72.549438%,32.939148%)" d="m22.19922,66.1914c-1.56641,0 -2.83594,1.26953 -2.83594,2.83594l0,19.37891c0,1.5664 1.26953,2.83593 2.83594,2.83593c1.57031,0 2.83984,-1.26953 2.83984,-2.83593l0,-19.37891c0,-1.56641 -1.26953,-2.83594 -2.83984,-2.83594zm0,0"/>
   <path id="svg_8" fill-rule="nonzero" fill="rgb(11.369324%,72.549438%,32.939148%)" d="m31.88281,53.55468c-1.56641,0 -2.83984,1.26563 -2.83984,2.83204l0,44.65625c0,1.5664 1.27343,2.83593 2.83984,2.83593c1.56641,0 2.83594,-1.26953 2.83594,-2.83593l0,-44.65625c0,-1.56641 -1.26953,-2.83204 -2.83594,-2.83204zm0,0"/>
   <path id="svg_9" fill-rule="nonzero" fill="rgb(11.369324%,72.549438%,32.939148%)" d="m41.5625,53.55468c-1.56641,0 -2.83594,1.26563 -2.83594,2.83204l0,44.65625c0,1.5664 1.26953,2.83593 2.83594,2.83593c1.5664,0 2.83984,-1.26953 2.83984,-2.83593l0,-44.65625c0,-1.56641 -1.27344,-2.83204 -2.83984,-2.83204zm0,0"/>
   <path id="svg_10" fill-rule="nonzero" fill="rgb(11.369324%,72.549438%,32.939148%)" d="m51.24219,19.01953c-1.56641,0 -2.83594,1.26953 -2.83594,2.83203l0,113.73047c0,1.5625 1.26953,2.83203 2.83594,2.83203c1.57031,0 2.83984,-1.26953 2.83984,-2.83203l0,-113.73047c0,-1.5625 -1.26953,-2.83203 -2.83984,-2.83203zm0,0"/>
   <path id="svg_11" fill-rule="nonzero" fill="rgb(11.369324%,72.549438%,32.939148%)" d="m60.92578,22.85547c-1.56641,0 -2.83984,1.26953 -2.83984,2.83593l0,106.05078c0,1.56641 1.27343,2.83204 2.83984,2.83204c1.56641,0 2.83594,-1.26563 2.83594,-2.83204l0,-106.05078c0,-1.5664 -1.26953,-2.83593 -2.83594,-2.83593zm0,0"/>
   <path id="svg_12" fill-rule="nonzero" fill="rgb(11.369324%,72.549438%,32.939148%)" d="m70.60547,57.17578c-1.56641,0 -2.83594,1.26953 -2.83594,2.83594l0,37.41015c0,1.56641 1.26953,2.83594 2.83594,2.83594c1.5664,0 2.83593,-1.26953 2.83593,-2.83594l0,-37.41015c0,-1.56641 -1.26953,-2.83594 -2.83593,-2.83594zm0,0"/>
   <g id="svg_13" clip-rule="nonzero" clip-path="url(#clip2)">
    <path id="svg_14" fill-rule="nonzero" fill="rgb(11.369324%,72.549438%,32.939148%)" d="m80.28515,0c-1.5664,0 -2.83593,1.26953 -2.83593,2.83593l0,151.76172c0,1.56641 1.26953,2.83594 2.83593,2.83594c1.57032,0 2.83985,-1.26953 2.83985,-2.83594l0,-151.76172c0,-1.5664 -1.26953,-2.83593 -2.83985,-2.83593zm0,0"/>
   </g>
   <path id="svg_15" fill-rule="nonzero" fill="rgb(11.369324%,72.549438%,32.939148%)" d="m89.96484,6.54297c-1.5664,0 -2.83594,1.26562 -2.83594,2.83203l0,138.68359c0,1.56641 1.26954,2.83203 2.83594,2.83203c1.57031,0 2.83985,-1.26562 2.83985,-2.83203l0,-138.68359c0,-1.56641 -1.26954,-2.83203 -2.83985,-2.83203zm0,0"/>
   <path id="svg_16" fill-rule="nonzero" fill="rgb(11.369324%,72.549438%,32.939148%)" d="m99.64844,19.01953c-1.56641,0 -2.83985,1.26953 -2.83985,2.83203l0,113.73047c0,1.5625 1.27344,2.83203 2.83985,2.83203c1.5664,0 2.83593,-1.26953 2.83593,-2.83203l0,-113.73047c0,-1.5625 -1.26953,-2.83203 -2.83593,-2.83203zm0,0"/>
   <path id="svg_17" fill-rule="nonzero" fill="rgb(11.369324%,72.549438%,32.939148%)" d="m109.32812,61.45703c-1.5664,0 -2.83593,1.26562 -2.83593,2.83203l0,28.85547c0,1.5625 1.26953,2.83203 2.83593,2.83203c1.56641,0 2.83594,-1.26953 2.83594,-2.83203l0,-28.85547c0,-1.56641 -1.26953,-2.83203 -2.83594,-2.83203zm0,0"/>
   <path id="svg_18" fill-rule="nonzero" fill="rgb(11.369324%,72.549438%,32.939148%)" d="m119.00781,61.45703c-1.56641,0 -2.83594,1.26562 -2.83594,2.83203l0,28.85547c0,1.5625 1.26953,2.83203 2.83594,2.83203c1.57031,0 2.83984,-1.26953 2.83984,-2.83203l0,-28.85547c0,-1.56641 -1.26953,-2.83203 -2.83984,-2.83203zm0,0"/>
   <path id="svg_19" fill-rule="nonzero" fill="rgb(11.369324%,72.549438%,32.939148%)" d="m128.6914,35.67578c-1.57031,0 -2.83984,1.26953 -2.83984,2.83594l0,80.41015c0,1.56641 1.26953,2.83594 2.83984,2.83594c1.56641,0 2.83594,-1.26953 2.83594,-2.83594l0,-80.41015c0,-1.56641 -1.26953,-2.83594 -2.83594,-2.83594zm0,0"/>
   <path id="svg_20" fill-rule="nonzero" fill="rgb(11.369324%,72.549438%,32.939148%)" d="m138.37109,54.3789c-1.5664,0 -2.83594,1.26953 -2.83594,2.83203l0,43.00782c0,1.5664 1.26954,2.83593 2.83594,2.83593c1.56641,0 2.83594,-1.26953 2.83594,-2.83593l0,-43.00782c0,-1.5625 -1.26953,-2.83203 -2.83594,-2.83203zm0,0"/>
   <path id="svg_21" fill-rule="nonzero" fill="rgb(11.369324%,72.549438%,32.939148%)" d="m148.05078,68.52343c-1.56641,0 -2.83594,1.26954 -2.83594,2.83594l0,14.71485c0,1.5664 1.26953,2.83593 2.83594,2.83593c1.57031,0 2.83984,-1.26953 2.83984,-2.83593l0,-14.71485c0,-1.5664 -1.26953,-2.83594 -2.83984,-2.83594zm0,0"/>
   <path id="svg_22" fill-rule="nonzero" fill="rgb(11.369324%,72.549438%,32.939148%)" d="m157.73437,70.11718c-1.57031,0 -2.83984,1.26563 -2.83984,2.83204l0,11.53515c0,1.56641 1.26953,2.83203 2.83984,2.83203c1.56641,0 2.83594,-1.26562 2.83594,-2.83203l0,-11.53515c0,-1.56641 -1.26953,-2.83204 -2.83594,-2.83204zm0,0"/>
   <g id="svg_23" clip-rule="nonzero" clip-path="url(#clip3)">
    <path id="svg_24" fill-rule="nonzero" fill="rgb(11.369324%,72.549438%,32.939148%)" d="m167.41406,70.11718c-1.56641,0 -2.83594,1.26563 -2.83594,2.83204l0,11.53515c0,1.56641 1.26953,2.83203 2.83594,2.83203c1.56641,0 2.83594,-1.26562 2.83594,-2.83203l0,-11.53515c0,-1.56641 -1.26953,-2.83204 -2.83594,-2.83204zm0,0"/>
   </g>
  </g>
 </g>
</svg>